<?xml version="1.0" encoding="iso-8859-1"?>
<!-- Generator: Adobe Illustrator 19.0.0, SVG Export Plug-In . SVG Version: 6.00 Build 0)  -->
<svg version="1.1" id="Capa_1" xmlns="http://www.w3.org/2000/svg" xmlns:xlink="http://www.w3.org/1999/xlink" x="0px" y="0px"
	 viewBox="0 0 512.001 512.001" style="enable-background:new 0 0 512.001 512.001;" xml:space="preserve">
<g>
	<g>
		<path d="M492,412c-11.046,0-20,8.954-20,20c0,22.056-17.944,40-40,40h-5.507c-0.719-0.445-1.461-0.864-2.251-1.223
			c-0.304-0.138-30.747-14.168-64.208-44.905c-44.174-40.578-72.592-89.699-84.464-145.999c-0.033-0.157-0.085-0.305-0.122-0.46
			c-0.107-0.453-0.218-0.904-0.356-1.346c-0.085-0.273-0.187-0.536-0.282-0.803c-0.12-0.335-0.237-0.67-0.375-0.997
			c-0.139-0.331-0.295-0.65-0.45-0.971c-0.122-0.252-0.239-0.505-0.372-0.751c-0.184-0.344-0.385-0.675-0.589-1.005
			c-0.133-0.217-0.263-0.436-0.405-0.647c-0.212-0.317-0.438-0.621-0.667-0.924c-0.164-0.218-0.326-0.436-0.499-0.647
			c-0.218-0.266-0.448-0.519-0.679-0.772c-0.213-0.234-0.425-0.467-0.649-0.691c-0.208-0.207-0.424-0.404-0.64-0.601
			c-0.27-0.247-0.541-0.492-0.825-0.725c-0.193-0.157-0.392-0.305-0.59-0.455c-0.321-0.244-0.645-0.484-0.982-0.709
			c-0.192-0.128-0.39-0.245-0.586-0.366c-0.35-0.216-0.701-0.429-1.066-0.624c-0.225-0.12-0.456-0.227-0.685-0.339
			c-0.342-0.166-0.682-0.333-1.036-0.48c-0.304-0.127-0.615-0.235-0.925-0.348c-0.29-0.104-0.576-0.215-0.873-0.307
			c-0.418-0.13-0.845-0.234-1.273-0.336c-0.175-0.042-0.342-0.1-0.519-0.137c-0.036-0.008-0.072-0.01-0.109-0.017
			c-0.468-0.096-0.943-0.163-1.42-0.225c-0.192-0.025-0.385-0.063-0.577-0.083c-0.38-0.039-0.765-0.048-1.149-0.065
			c-0.295-0.013-0.592-0.039-0.885-0.039c-0.231,0-0.464,0.022-0.696,0.031c-0.448,0.016-0.895,0.03-1.337,0.075
			c-0.137,0.014-0.274,0.042-0.411,0.059c-0.533,0.066-1.064,0.143-1.586,0.251c-0.028,0.006-0.056,0.007-0.084,0.013
			c-0.135,0.029-0.263,0.074-0.397,0.105c-0.48,0.112-0.957,0.23-1.426,0.377c-0.248,0.077-0.487,0.171-0.731,0.257
			c-0.36,0.128-0.72,0.254-1.071,0.402c-0.31,0.13-0.608,0.277-0.909,0.421c-0.273,0.131-0.547,0.259-0.814,0.403
			c-0.326,0.175-0.64,0.367-0.954,0.559c-0.234,0.143-0.469,0.283-0.696,0.435c-0.304,0.203-0.595,0.42-0.885,0.639
			c-0.23,0.173-0.46,0.344-0.682,0.526c-0.256,0.211-0.501,0.433-0.746,0.656c-0.242,0.219-0.482,0.438-0.713,0.669
			c-0.202,0.203-0.394,0.415-0.588,0.626c-0.25,0.273-0.498,0.548-0.734,0.835c-0.157,0.192-0.304,0.392-0.454,0.589
			c-0.243,0.32-0.481,0.641-0.705,0.977c-0.131,0.197-0.251,0.4-0.376,0.601c-0.212,0.344-0.421,0.688-0.613,1.046
			c-0.127,0.236-0.239,0.478-0.356,0.719c-0.16,0.33-0.321,0.658-0.463,0.998c-0.135,0.322-0.25,0.652-0.368,0.981
			c-0.097,0.271-0.201,0.539-0.287,0.816c-0.137,0.441-0.248,0.891-0.355,1.342c-0.037,0.156-0.089,0.304-0.122,0.462
			c-11.873,56.299-40.291,105.42-84.464,145.999c-33.461,30.737-63.904,44.768-64.167,44.887c-0.808,0.363-1.566,0.789-2.3,1.241H80
			c-22.056,0-40-17.944-40-40v-82.622L236,119.88V184c0,11.046,8.954,20,20,20s20-8.954,20-20v-64.12l200.792,235.109
			c3.956,4.632,9.569,7.012,15.218,7.012c4.594,0,9.212-1.575,12.979-4.792c8.399-7.173,9.393-19.798,2.22-28.197L282.301,65.666
			l27.907-32.677c7.173-8.399,6.18-21.024-2.22-28.197c-8.399-7.173-21.023-6.18-28.197,2.22L256,34.869L232.208,7.012
			c-7.173-8.399-19.798-9.393-28.197-2.22c-8.399,7.173-9.393,19.798-2.22,28.197l27.907,32.677L4.792,329.012
			C1.699,332.633,0,337.239,0,342v90c0,44.112,35.888,80,80,80h352c44.112,0,80-35.888,80-80C512,420.955,503.046,412,492,412z
			 M159.463,472c5.934-4.691,12.098-9.872,18.373-15.583c33.978-30.921,60.397-67.456,78.164-107.666
			c17.767,40.21,44.186,76.745,78.164,107.666c6.275,5.71,12.439,10.891,18.373,15.583H159.463z"/>
	</g>
</g>
<g>
</g>
<g>
</g>
<g>
</g>
<g>
</g>
<g>
</g>
<g>
</g>
<g>
</g>
<g>
</g>
<g>
</g>
<g>
</g>
<g>
</g>
<g>
</g>
<g>
</g>
<g>
</g>
<g>
</g>
</svg>
